<svg width="162" height="52" viewBox="0 0 162 52" fill="none" xmlns="http://www.w3.org/2000/svg">
<path d="M43.6437 -3.57699e-07C48.1632 -1.60147e-07 51.8269 3.66374 51.8269 8.1832L51.8269 25.9135C51.8269 40.2251 40.225 51.8269 25.9134 51.8269V51.8269C11.6018 51.8269 -2.08318e-05 40.2251 -2.02062e-05 25.9135V25.9135C-1.95806e-05 11.6019 11.6018 -1.75829e-06 25.9134 -1.13271e-06L43.6437 -3.57699e-07Z" fill="#0052CC"/>
<path fill-rule="evenodd" clip-rule="evenodd" d="M14.8607 21.6516C12.7869 19.5779 12.7869 16.2156 14.8607 14.1419C16.9345 12.0681 20.2967 12.0681 22.3705 14.1419L37.429 29.2005C39.5028 31.2742 39.5028 34.6365 37.429 36.7102C35.3553 38.784 31.993 38.784 29.9193 36.7102L14.8607 21.6516ZM21.4712 36.9041C21.4712 37.79 20.753 38.5082 19.867 38.5082H16.6587C14.0008 38.5082 11.8462 36.3536 11.8462 33.6957C11.8462 31.0379 14.0008 28.8832 16.6587 28.8832C19.3166 28.8832 21.4712 31.0379 21.4712 33.6957V36.9041ZM31.96 12.5948C31.074 12.5948 30.3558 13.313 30.3558 14.1989V17.4073C30.3558 20.0651 32.5104 22.2198 35.1683 22.2198C37.8262 22.2198 39.9808 20.0651 39.9808 17.4073C39.9808 14.7494 37.8262 12.5948 35.1683 12.5948H31.96Z" fill="white"/>
</svg>
